<svg xmlns="http://www.w3.org/2000/svg" version="1.1" xmlns:xlink="http://www.w3.org/1999/xlink" xmlns:svgjs="http://svgjs.dev/svgjs" viewBox="0 0 2400 800" opacity="0.64"><defs><linearGradient x1="50%" y1="0%" x2="50%" y2="100%" id="sssurf-grad"><stop stop-color="hsl(30, 100%, 50%)" stop-opacity="1" offset="0%"></stop><stop stop-color="hsl(30, 100%, 70%)" stop-opacity="1" offset="100%"></stop></linearGradient></defs><g fill="url(#sssurf-grad)" transform="matrix(1,0,0,1,5.82373046875,187.00196075439453)"><path d="M-10,10C75.41666666666666,12.5,231.25,47.625,400,22C568.75,-3.625,633.3333333333333,-130.70833333333334,800,-113C966.6666666666667,-95.29166666666667,1033.3333333333333,108.25,1200,107C1366.6666666666667,105.75,1433.3333333333333,-117.95833333333333,1600,-119C1766.6666666666667,-120.04166666666667,1833.3333333333333,87,2000,102C2166.6666666666665,117,2264.5833333333335,-109.08333333333333,2400,-47C2535.4166666666665,15.083333333333329,3254.1666666666665,202.70833333333331,2650,400C2045.8333333333335,597.2916666666667,156.25,795.8333333333334,-500,900" transform="matrix(1,0,0,1,0,89)" opacity="0.05"></path><path d="M-10,10C75.41666666666666,12.5,231.25,47.625,400,22C568.75,-3.625,633.3333333333333,-130.70833333333334,800,-113C966.6666666666667,-95.29166666666667,1033.3333333333333,108.25,1200,107C1366.6666666666667,105.75,1433.3333333333333,-117.95833333333333,1600,-119C1766.6666666666667,-120.04166666666667,1833.3333333333333,87,2000,102C2166.6666666666665,117,2264.5833333333335,-109.08333333333333,2400,-47C2535.4166666666665,15.083333333333329,3254.1666666666665,202.70833333333331,2650,400C2045.8333333333335,597.2916666666667,156.25,795.8333333333334,-500,900" transform="matrix(1,0,0,1,0,178)" opacity="0.37"></path><path d="M-10,10C75.41666666666666,12.5,231.25,47.625,400,22C568.75,-3.625,633.3333333333333,-130.70833333333334,800,-113C966.6666666666667,-95.29166666666667,1033.3333333333333,108.25,1200,107C1366.6666666666667,105.75,1433.3333333333333,-117.95833333333333,1600,-119C1766.6666666666667,-120.04166666666667,1833.3333333333333,87,2000,102C2166.6666666666665,117,2264.5833333333335,-109.08333333333333,2400,-47C2535.4166666666665,15.083333333333329,3254.1666666666665,202.70833333333331,2650,400C2045.8333333333335,597.2916666666667,156.25,795.8333333333334,-500,900" transform="matrix(1,0,0,1,0,267)" opacity="0.68"></path><path d="M-10,10C75.41666666666666,12.5,231.25,47.625,400,22C568.75,-3.625,633.3333333333333,-130.70833333333334,800,-113C966.6666666666667,-95.29166666666667,1033.3333333333333,108.25,1200,107C1366.6666666666667,105.75,1433.3333333333333,-117.95833333333333,1600,-119C1766.6666666666667,-120.04166666666667,1833.3333333333333,87,2000,102C2166.6666666666665,117,2264.5833333333335,-109.08333333333333,2400,-47C2535.4166666666665,15.083333333333329,3254.1666666666665,202.70833333333331,2650,400C2045.8333333333335,597.2916666666667,156.25,795.8333333333334,-500,900" transform="matrix(1,0,0,1,0,356)" opacity="1.00"></path></g></svg>